<svg xmlns="http://www.w3.org/2000/svg" version="1.1" xmlns:xlink="http://www.w3.org/1999/xlink" xmlns:svgjs="http://svgjs.com/svgjs" width="512" height="512" x="0" y="0" viewBox="0 0 64 64" style="enable-background:new 0 0 512 512" xml:space="preserve" class=""><g><path xmlns="http://www.w3.org/2000/svg" d="m49.991 25.327a18.989 18.989 0 0 1 8.609 28.507l3.4 8.166-8.166-3.4a18.989 18.989 0 0 1 -28.507-8.606q.336.006.673.006a24 24 0 0 0 24-24q0-.338-.009-.673z" fill="#4c6cb5" data-original="#4c6cb5"></path><g xmlns="http://www.w3.org/2000/svg" fill="#e2e7f6"><path d="m26 2a24 24 0 0 0 -20.673 36.188l-3.327 10.812 11.553-2.476a24 24 0 1 0 12.447-44.524z" fill="#e2e7f6" data-original="#e2e7f6" class=""></path><circle cx="52" cy="46" r="2" fill="#e2e7f6" data-original="#e2e7f6" class=""></circle><circle cx="46" cy="46" r="2" fill="#e2e7f6" data-original="#e2e7f6" class=""></circle></g><path xmlns="http://www.w3.org/2000/svg" d="m15 23a4 4 0 0 1 4-4h1a4 4 0 0 1 4 4v5a7 7 0 0 1 -7 7 2 2 0 0 1 -2-2 2 2 0 0 1 2-2 3 3 0 0 0 3-3 1 1 0 0 0 -1-1 4 4 0 0 1 -4-4z" fill="#78a0d4" data-original="#78a0d4" class=""></path><path xmlns="http://www.w3.org/2000/svg" d="m28 23a4 4 0 0 1 4-4h1a4 4 0 0 1 4 4v5a7 7 0 0 1 -7 7 2 2 0 0 1 -2-2 2 2 0 0 1 2-2 3 3 0 0 0 3-3 1 1 0 0 0 -1-1 4 4 0 0 1 -4-4z" fill="#78a0d4" data-original="#78a0d4" class=""></path></g></svg>