<svg xmlns="http://www.w3.org/2000/svg" version="1.1" xmlns:xlink="http://www.w3.org/1999/xlink" xmlns:svgjs="http://svgjs.com/svgjs" width="512" height="512" x="0" y="0" viewBox="0 0 512 512" style="enable-background:new 0 0 512 512" xml:space="preserve" class=""><g><g xmlns="http://www.w3.org/2000/svg" fill="#5e3b7f"><path d="m320.837 285.783c-8.868-8.031-21.082-11.88-36.978-11.88h-92.444v93.365h92.444c15.895 0 28.277-4.099 36.978-12.382 8.784-8.199 13.218-19.911 13.218-34.97 0-14.808-4.35-26.102-13.218-34.133z" fill="#5e3b7f" data-original="#5e3b7f" class=""></path><path d="m308.12 225.631c8.366-7.195 12.549-17.401 12.549-30.787 0-15.059-3.765-25.684-11.294-31.791s-18.405-9.202-32.628-9.202h-85.333v82.489h85.333c12.55 0 23.007-3.514 31.373-10.709z" fill="#5e3b7f" data-original="#5e3b7f" class=""></path><path d="m426.667 0h-341.334c-46.933 0-85.333 38.4-85.333 85.333v341.333c0 46.934 38.4 85.334 85.333 85.334h341.333c46.934 0 85.334-38.4 85.334-85.333v-341.334c0-46.933-38.4-85.333-85.333-85.333zm-46.599 359.488c-4.183 10.206-10.708 18.991-19.66 26.353-8.951 7.362-20.329 13.218-34.3 17.569-13.971 4.35-30.536 6.525-49.778 6.525h-137.203v-298.667h145.15c26.771 0 48.272 6.107 64.418 18.405s24.261 30.787 24.261 55.634c0 15.059-3.681 27.942-11.043 38.651s-17.903 19.075-31.624 24.931v.837c18.405 3.932 32.377 12.633 41.83 26.102 9.453 13.553 14.222 30.452 14.222 50.865.001 11.712-2.09 22.672-6.273 32.795z" fill="#5e3b7f" data-original="#5e3b7f" class=""></path></g></g></svg>