<svg xmlns="http://www.w3.org/2000/svg" version="1.1" xmlns:xlink="http://www.w3.org/1999/xlink" xmlns:svgjs="http://svgjs.com/svgjs" width="512" height="512" x="0" y="0" viewBox="0 0 512 512" style="enable-background:new 0 0 512 512" xml:space="preserve" class=""><g><linearGradient xmlns="http://www.w3.org/2000/svg" id="XMLID_00000118357800129798447730000005862678814579567263_" gradientUnits="userSpaceOnUse" x1="337.597" x2="156.289" y1="89.494" y2="459.361"><stop offset="0" stop-color="#3f873f"></stop><stop offset=".3296" stop-color="#3f8b3d"></stop><stop offset=".6367" stop-color="#3e9638"></stop><stop offset=".9341" stop-color="#3da92e"></stop><stop offset="1" stop-color="#3dae2b"></stop></linearGradient><linearGradient xmlns="http://www.w3.org/2000/svg" id="SVGID_1_" gradientUnits="userSpaceOnUse" x1="225.787" x2="733.809" y1="282.815" y2="-92.539"><stop offset=".1376" stop-color="#3f873f"></stop><stop offset=".4016" stop-color="#52a044"></stop><stop offset=".7129" stop-color="#64b749"></stop><stop offset=".9081" stop-color="#6abf4b"></stop></linearGradient><linearGradient xmlns="http://www.w3.org/2000/svg" id="SVGID_00000048489710280204197710000009720263475330385543_" gradientUnits="userSpaceOnUse" x1="24.028" x2="487.275" y1="255.987" y2="255.987"><stop offset=".0919" stop-color="#6abf4b"></stop><stop offset=".2871" stop-color="#64b749"></stop><stop offset=".5984" stop-color="#52a044"></stop><stop offset=".8624" stop-color="#3f873f"></stop></linearGradient><path xmlns="http://www.w3.org/2000/svg" id="XMLID_143_" clip-rule="evenodd" d="m268.14 3.246c-7.495-4.328-16.736-4.328-24.231 0l-200.689 115.812c-7.505 4.328-12.125 12.327-12.125 20.994v231.802c0 8.659 4.62 16.657 12.117 20.994l200.688 115.904c7.503 4.33 16.744 4.33 24.247 0l200.642-115.905c7.495-4.337 12.115-12.335 12.115-20.994v-231.81c0-8.659-4.62-16.657-12.123-20.986z" fill="url(#XMLID_00000118357800129798447730000005862678814579567263_)" fill-rule="evenodd" data-original="url(#XMLID_00000118357800129798447730000005862678814579567263_)"></path><path xmlns="http://www.w3.org/2000/svg" d="m469.18 119.058-201.25-115.812c-1.985-1.147-4.112-1.968-6.299-2.507l-225.551 385.838c1.935 2.865 3.818 4.803 6.355 6.271l201.592 115.905c5.71 3.296 12.496 4.067 18.723 2.346l211.827-387.889c-1.609-1.598-3.417-3.01-5.397-4.152z" fill="url(#SVGID_1_)" data-original="url(#SVGID_1_)"></path><path xmlns="http://www.w3.org/2000/svg" d="m469.293 392.848c5.848-3.384 9.989-9.312 11.148-16.265l-218.81-375.844c-5.761-1.147-12.959-.486-18.143 2.507l-199.898 115.115 215.947 393.404c3.082-.42 6.1-1.417 8.863-3.012z" fill="url(#SVGID_00000048489710280204197710000009720263475330385543_)" data-original="url(#SVGID_00000048489710280204197710000009720263475330385543_)"></path></g></svg>