<?xml version="1.0" encoding="UTF-8"?>
<svg id="Layer_2" data-name="Layer 2" xmlns="http://www.w3.org/2000/svg" xmlns:xlink="http://www.w3.org/1999/xlink" viewBox="0 0 382.76 123.27">
  <defs>
    <style>
      .cls-1 {
        fill: url(#linear-gradient-2);
      }

      .cls-2 {
        fill: url(#linear-gradient-17);
      }

      .cls-3 {
        fill: url(#linear-gradient-15);
      }

      .cls-4 {
        fill: url(#linear-gradient-18);
      }

      .cls-5 {
        fill: url(#linear-gradient-28);
      }

      .cls-6 {
        fill: url(#linear-gradient-14);
      }

      .cls-7 {
        fill: url(#linear-gradient-20);
      }

      .cls-8 {
        fill: url(#linear-gradient-6);
      }

      .cls-9 {
        fill: url(#linear-gradient-32);
      }

      .cls-10 {
        fill: url(#linear-gradient-11);
      }

      .cls-11 {
        fill: url(#linear-gradient-10);
      }

      .cls-12 {
        fill: url(#linear-gradient-16);
      }

      .cls-13 {
        fill: url(#linear-gradient-31);
      }

      .cls-14 {
        fill: url(#linear-gradient-21);
      }

      .cls-15 {
        fill: url(#linear-gradient-25);
      }

      .cls-16 {
        fill: url(#linear-gradient-5);
      }

      .cls-17 {
        fill: url(#linear-gradient-7);
      }

      .cls-18 {
        fill: url(#linear-gradient-24);
      }

      .cls-19 {
        fill: url(#linear-gradient-9);
      }

      .cls-20 {
        fill: url(#linear-gradient-22);
      }

      .cls-21 {
        fill: url(#linear-gradient-3);
      }

      .cls-22 {
        fill: url(#linear-gradient);
      }

      .cls-23 {
        fill: url(#linear-gradient-27);
      }

      .cls-24 {
        fill: url(#linear-gradient-33);
      }

      .cls-25 {
        fill: url(#linear-gradient-29);
      }

      .cls-26 {
        fill: url(#linear-gradient-30);
      }

      .cls-27 {
        fill: url(#linear-gradient-23);
      }

      .cls-28 {
        fill: url(#linear-gradient-19);
      }

      .cls-29 {
        fill: url(#linear-gradient-4);
      }

      .cls-30 {
        fill: url(#linear-gradient-8);
      }

      .cls-31 {
        fill: url(#linear-gradient-12);
      }

      .cls-32 {
        fill: url(#linear-gradient-13);
      }

      .cls-33 {
        fill: url(#linear-gradient-26);
      }
    </style>
    <linearGradient id="linear-gradient" x1="82.33" y1="2.27" x2="82.94" y2="60.79" gradientUnits="userSpaceOnUse">
      <stop offset="0" stop-color="#aa812c"/>
      <stop offset="1" stop-color="#d1b33f"/>
    </linearGradient>
    <linearGradient id="linear-gradient-2" x1="109.96" y1="101.86" x2="60.87" y2="80" xlink:href="#linear-gradient"/>
    <linearGradient id="linear-gradient-3" x1="54.27" y1="57.68" x2="5.84" y2="17.33" xlink:href="#linear-gradient"/>
    <linearGradient id="linear-gradient-4" x1="0" y1="92.12" x2="59.86" y2="92.12" xlink:href="#linear-gradient"/>
    <linearGradient id="linear-gradient-5" x1="137.74" y1="112.32" x2="145.28" y2="112.32" xlink:href="#linear-gradient"/>
    <linearGradient id="linear-gradient-6" x1="148.97" y1="112.32" x2="156.95" y2="112.32" xlink:href="#linear-gradient"/>
    <linearGradient id="linear-gradient-7" x1="160.07" y1="112.28" x2="171.19" y2="112.28" xlink:href="#linear-gradient"/>
    <linearGradient id="linear-gradient-8" x1="174.76" y1="112.32" x2="184.43" y2="112.32" xlink:href="#linear-gradient"/>
    <linearGradient id="linear-gradient-9" x1="188.44" y1="112.32" x2="196.42" y2="112.32" xlink:href="#linear-gradient"/>
    <linearGradient id="linear-gradient-10" x1="200.44" y1="112.32" x2="209.51" y2="112.32" xlink:href="#linear-gradient"/>
    <linearGradient id="linear-gradient-11" x1="212.52" y1="112.32" x2="220.82" y2="112.32" xlink:href="#linear-gradient"/>
    <linearGradient id="linear-gradient-12" x1="237.78" y1="112.32" x2="240.09" y2="112.32" xlink:href="#linear-gradient"/>
    <linearGradient id="linear-gradient-13" x1="244.66" y1="112.32" x2="253.99" y2="112.32" xlink:href="#linear-gradient"/>
    <linearGradient id="linear-gradient-14" x1="270.89" y1="112.32" x2="280.58" y2="112.32" xlink:href="#linear-gradient"/>
    <linearGradient id="linear-gradient-15" x1="284.37" y1="112.32" x2="293.44" y2="112.32" xlink:href="#linear-gradient"/>
    <linearGradient id="linear-gradient-16" x1="297.16" y1="112.32" x2="305.14" y2="112.32" xlink:href="#linear-gradient"/>
    <linearGradient id="linear-gradient-17" x1="308.26" y1="112.28" x2="319.39" y2="112.28" xlink:href="#linear-gradient"/>
    <linearGradient id="linear-gradient-18" x1="322.21" y1="112.32" x2="330.9" y2="112.32" xlink:href="#linear-gradient"/>
    <linearGradient id="linear-gradient-19" x1="334.73" y1="112.32" x2="337.04" y2="112.32" xlink:href="#linear-gradient"/>
    <linearGradient id="linear-gradient-20" x1="340.71" y1="112.36" x2="351.24" y2="112.36" xlink:href="#linear-gradient"/>
    <linearGradient id="linear-gradient-21" x1="354.91" y1="112.32" x2="357.22" y2="112.32" xlink:href="#linear-gradient"/>
    <linearGradient id="linear-gradient-22" x1="361.04" y1="112.32" x2="369.74" y2="112.32" xlink:href="#linear-gradient"/>
    <linearGradient id="linear-gradient-23" x1="372.38" y1="112.32" x2="382.76" y2="112.32" xlink:href="#linear-gradient"/>
    <linearGradient id="linear-gradient-24" x1="142.77" y1="26.18" x2="358.41" y2="32.88" xlink:href="#linear-gradient"/>
    <linearGradient id="linear-gradient-25" x1="142.81" y1="24.79" x2="358.46" y2="31.48" xlink:href="#linear-gradient"/>
    <linearGradient id="linear-gradient-26" x1="142.85" y1="23.58" x2="358.5" y2="30.28" xlink:href="#linear-gradient"/>
    <linearGradient id="linear-gradient-27" x1="142.89" y1="22.38" x2="358.53" y2="29.07" xlink:href="#linear-gradient"/>
    <linearGradient id="linear-gradient-28" x1="142.92" y1="21.4" x2="358.56" y2="28.1" xlink:href="#linear-gradient"/>
    <linearGradient id="linear-gradient-29" x1="142.96" y1="20.01" x2="358.61" y2="26.7" xlink:href="#linear-gradient"/>
    <linearGradient id="linear-gradient-30" x1="247.54" y1="78.88" x2="208.61" y2="74.48" xlink:href="#linear-gradient"/>
    <linearGradient id="linear-gradient-31" x1="291.93" y1="79.89" x2="252.14" y2="75.39" xlink:href="#linear-gradient"/>
    <linearGradient id="linear-gradient-32" x1="337.06" y1="79.88" x2="294.27" y2="75.04" xlink:href="#linear-gradient"/>
    <linearGradient id="linear-gradient-33" x1="383.11" y1="80.11" x2="339.06" y2="75.13" xlink:href="#linear-gradient"/>
  </defs>
  <g id="Layer_1-2" data-name="Layer 1">
    <g>
      <g>
        <path class="cls-22" d="M46.62,40.49l19.2,.1c.85,0,1.65,.35,2.24,.96l17.94,18.68c1.74,1.82,4.63,1.87,6.45,.13l25.78-24.76c1.82-1.74,1.87-4.63,.13-6.45L91.7,1.4c-1.74-1.82-4.63-1.87-6.45-.13l-28.62,27.48-.46,.44-10.18,9.77c-.58,.55-.19,1.53,.61,1.53Z"/>
        <path class="cls-1" d="M46.62,82.78l19.2-.1c.85,0,1.65-.35,2.24-.96l17.94-18.68c1.74-1.82,4.63-1.87,6.45-.13l25.78,24.76c1.82,1.74,1.87,4.63,.13,6.45l-26.65,27.76c-1.74,1.82-4.63,1.87-6.45,.13l-28.62-27.48-.46-.44-10.18-9.77c-.58-.55-.19-1.53,.61-1.53Z"/>
        <path class="cls-21" d="M59.59,53.43l-13.78-13.37c-.61-.59-.95-1.4-.95-2.24V11.91c0-2.52-2.04-4.56-4.56-4.56H4.56C2.04,7.35,0,9.4,0,11.91V50.4c0,2.52,2.04,4.56,4.56,4.56H58.97c.8,0,1.19-.97,.62-1.53Z"/>
        <path class="cls-29" d="M59.59,69.85l-13.78,13.37c-.61,.59-.95,1.4-.95,2.24v25.9c0,2.52-2.04,4.56-4.56,4.56H4.56c-2.52,0-4.56-2.04-4.56-4.56v-38.48c0-2.52,2.04-4.56,4.56-4.56H58.97c.8,0,1.19,.97,.62,1.53Z"/>
      </g>
      <g>
        <path class="cls-16" d="M137.74,117.57v-10.5h2.31v8.41h5.23v2.09h-7.54Z"/>
        <path class="cls-8" d="M148.97,117.57v-10.5h7.9v2.06h-5.62v2.13h4.95v2.06h-4.95v2.2h5.7v2.06h-7.98Z"/>
        <path class="cls-17" d="M168.78,117.57l-.96-2.35h-4.44l-.96,2.35h-2.35l4.5-10.57h2.13l4.5,10.57h-2.41Zm-3.18-7.8l-1.39,3.4h2.79l-1.39-3.4Z"/>
        <path class="cls-30" d="M184.03,114.39c-.27,.64-.65,1.19-1.15,1.66-.49,.47-1.09,.84-1.77,1.11-.68,.27-1.44,.41-2.26,.41h-4.09v-10.5h4.09c.82,0,1.57,.13,2.26,.4,.68,.27,1.28,.63,1.77,1.1,.49,.47,.88,1.02,1.15,1.66,.27,.63,.4,1.32,.4,2.06v.03c0,.74-.14,1.43-.4,2.07Zm-2.01-2.07c0-.46-.08-.88-.23-1.27-.16-.39-.37-.72-.64-1.01-.28-.28-.61-.5-1-.65-.39-.16-.82-.23-1.29-.23h-1.78v6.33h1.78c.47,0,.9-.07,1.29-.22,.39-.15,.72-.37,1-.65,.28-.28,.49-.61,.64-.99,.16-.38,.23-.8,.23-1.28v-.03Z"/>
        <path class="cls-19" d="M188.44,117.57v-10.5h7.9v2.06h-5.62v2.13h4.95v2.06h-4.95v2.2h5.7v2.06h-7.98Z"/>
        <path class="cls-11" d="M206.81,117.57l-2.25-3.36h-1.81v3.36h-2.31v-10.5h4.8c1.25,0,2.22,.31,2.92,.91,.7,.61,1.04,1.46,1.04,2.55v.03c0,.85-.21,1.54-.62,2.08-.42,.53-.96,.93-1.63,1.18l2.56,3.75h-2.7Zm.05-6.91c0-.5-.16-.87-.48-1.13-.32-.25-.77-.37-1.34-.37h-2.29v3.01h2.34c.57,0,1.01-.13,1.31-.4,.31-.27,.46-.63,.46-1.08v-.03Z"/>
        <path class="cls-10" d="M220.53,115.85c-.19,.41-.45,.74-.79,1.02-.34,.28-.74,.48-1.21,.63s-.99,.22-1.56,.22c-.8,0-1.58-.14-2.35-.41-.77-.27-1.47-.7-2.1-1.27l1.37-1.63c.48,.39,.97,.7,1.48,.93,.5,.23,1.06,.34,1.66,.34,.48,0,.85-.09,1.12-.26,.26-.18,.4-.42,.4-.73v-.03c0-.15-.03-.28-.08-.4s-.16-.22-.32-.32c-.16-.1-.37-.2-.65-.3-.28-.1-.63-.21-1.07-.32-.53-.13-1.01-.28-1.44-.43-.43-.16-.8-.36-1.1-.59-.3-.23-.53-.53-.7-.88-.17-.35-.25-.78-.25-1.3v-.03c0-.48,.09-.91,.27-1.3,.18-.38,.43-.72,.75-1,.32-.28,.71-.5,1.16-.65,.45-.15,.94-.22,1.48-.22,.77,0,1.48,.11,2.12,.34s1.24,.56,1.78,.99l-1.2,1.74c-.47-.32-.93-.57-1.38-.76s-.9-.28-1.35-.28-.79,.09-1.01,.26-.34,.39-.34,.65v.03c0,.17,.03,.32,.1,.44,.07,.12,.18,.24,.35,.34,.17,.1,.4,.2,.7,.29,.3,.09,.67,.2,1.12,.31,.53,.14,1.01,.3,1.42,.47s.77,.38,1.05,.63c.29,.25,.5,.53,.65,.86s.22,.72,.22,1.19v.03c0,.52-.1,.98-.28,1.39Z"/>
        <path class="cls-31" d="M237.78,117.57v-10.5h2.31v10.5h-2.31Z"/>
        <path class="cls-32" d="M252.02,117.57l-5.08-6.67v6.67h-2.28v-10.5h2.13l4.92,6.46v-6.46h2.28v10.5h-1.97Z"/>
        <path class="cls-6" d="M279.74,116.66c-.29,.23-.61,.43-.95,.59-.35,.17-.72,.29-1.13,.38-.41,.09-.87,.13-1.38,.13-.77,0-1.49-.14-2.15-.42-.66-.28-1.23-.66-1.71-1.15-.48-.49-.85-1.06-1.12-1.72-.27-.66-.41-1.37-.41-2.12v-.03c0-.75,.14-1.45,.41-2.11,.27-.66,.64-1.23,1.12-1.72,.48-.5,1.06-.88,1.72-1.17,.67-.29,1.41-.43,2.22-.43,.49,0,.94,.04,1.34,.12,.41,.08,.77,.19,1.1,.33,.33,.14,.63,.31,.91,.51,.28,.2,.54,.42,.78,.66l-1.47,1.69c-.41-.37-.83-.66-1.25-.87-.43-.21-.9-.32-1.43-.32-.44,0-.85,.09-1.22,.26-.37,.17-.7,.4-.97,.7-.27,.3-.48,.65-.63,1.04-.15,.39-.23,.82-.23,1.27v.03c0,.45,.08,.87,.23,1.28,.15,.4,.36,.75,.62,1.05,.27,.3,.59,.54,.96,.71,.38,.17,.79,.26,1.24,.26,.6,0,1.11-.11,1.52-.33,.41-.22,.83-.52,1.24-.9l1.47,1.48c-.27,.29-.55,.55-.84,.78Z"/>
        <path class="cls-3" d="M290.74,117.57l-2.25-3.36h-1.81v3.36h-2.31v-10.5h4.8c1.25,0,2.22,.31,2.92,.91,.7,.61,1.04,1.46,1.04,2.55v.03c0,.85-.21,1.54-.62,2.08-.42,.53-.96,.93-1.63,1.18l2.56,3.75h-2.7Zm.05-6.91c0-.5-.16-.87-.48-1.13-.32-.25-.77-.37-1.34-.37h-2.29v3.01h2.34c.57,0,1.01-.13,1.31-.4,.31-.27,.46-.63,.46-1.08v-.03Z"/>
        <path class="cls-12" d="M297.16,117.57v-10.5h7.9v2.06h-5.62v2.13h4.95v2.06h-4.95v2.2h5.7v2.06h-7.98Z"/>
        <path class="cls-2" d="M316.97,117.57l-.96-2.35h-4.44l-.96,2.35h-2.35l4.5-10.57h2.13l4.5,10.57h-2.41Zm-3.18-7.8l-1.39,3.4h2.79l-1.39-3.4Z"/>
        <path class="cls-4" d="M327.71,109.2v8.37h-2.31v-8.37h-3.2v-2.13h8.7v2.13h-3.19Z"/>
        <path class="cls-28" d="M334.73,117.57v-10.5h2.31v10.5h-2.31Z"/>
        <path class="cls-7" d="M346.99,117.65h-2.04l-4.24-10.57h2.55l2.74,7.39,2.74-7.39h2.49l-4.24,10.57Z"/>
        <path class="cls-14" d="M354.91,117.57v-10.5h2.31v10.5h-2.31Z"/>
        <path class="cls-20" d="M366.55,109.2v8.37h-2.31v-8.37h-3.2v-2.13h8.7v2.13h-3.19Z"/>
        <path class="cls-27" d="M378.73,113.39v4.18h-2.31v-4.14l-4.03-6.36h2.7l2.5,4.21,2.55-4.21h2.62l-4.04,6.31Z"/>
      </g>
      <g>
        <path class="cls-18" d="M138.17,4.82h11.25c.24,0,.43,.19,.43,.43V21.37c0,.4,.5,.58,.76,.28l14.16-16.68c.08-.1,.2-.15,.33-.15h13.21c.37,0,.57,.44,.32,.71l-15.69,17.82c-.13,.15-.14,.37-.03,.53l16.45,23.95c.2,.29,0,.67-.35,.67h-13.5c-.14,0-.28-.07-.36-.19l-10.55-15.58c-.16-.23-.49-.25-.68-.05l-3.95,4.4c-.07,.08-.11,.18-.11,.29v10.7c0,.24-.19,.43-.43,.43h-11.25c-.24,0-.43-.19-.43-.43V5.25c0-.24,.19-.43,.43-.43Z"/>
        <path class="cls-15" d="M201.84,4.51h11.1c.17,0,.33,.1,.4,.26l18.24,43.14c.12,.28-.09,.6-.4,.6h-12.04c-.17,0-.33-.11-.4-.27l-2.96-7.27c-.07-.16-.22-.27-.4-.27h-16.27c-.18,0-.33,.11-.4,.27l-2.9,7.26c-.07,.16-.22,.27-.4,.27h-11.79c-.31,0-.52-.31-.4-.6L201.45,4.77c.07-.16,.22-.26,.4-.26Zm10.1,26.19l-4.24-10.82c-.14-.36-.66-.36-.8,0l-4.3,10.82c-.11,.28,.1,.59,.4,.59h8.54c.3,0,.51-.3,.4-.59Z"/>
        <path class="cls-33" d="M236.51,4.82h11.25c.24,0,.43,.19,.43,.43V37.47c0,.24,.19,.43,.43,.43h20.3c.24,0,.43,.19,.43,.43v9.75c0,.24-.19,.43-.43,.43h-32.41c-.24,0-.43-.19-.43-.43V5.25c0-.24,.19-.43,.43-.43Z"/>
        <path class="cls-23" d="M275.22,4.82h11.31c.24,0,.43,.19,.43,.43V48.08c0,.24-.19,.43-.43,.43h-11.31c-.24,0-.43-.19-.43-.43V5.25c0-.24,.19-.43,.43-.43Z"/>
        <path class="cls-5" d="M295.38,4.82h34.09c.24,0,.43,.19,.43,.43V15c0,.24-.19,.43-.43,.43h-21.98c-.24,0-.43,.19-.43,.43v6.57c0,.24,.19,.43,.43,.43h19.8c.24,0,.43,.19,.43,.43v9.19c0,.24-.19,.43-.43,.43h-19.8c-.24,0-.43,.19-.43,.43v14.74c0,.24-.19,.43-.43,.43h-11.25c-.24,0-.43-.19-.43-.43V5.25c0-.24,.19-.43,.43-.43Z"/>
        <path class="cls-25" d="M333.91,26.79v-.12c0-12.55,10.11-22.72,23.59-22.72s23.47,10.05,23.47,22.59v.13c0,12.55-10.11,22.72-23.59,22.72s-23.47-10.05-23.47-22.59Zm34.7,0v-.12c0-6.3-4.56-11.8-11.24-11.8s-11.05,5.37-11.05,11.67v.13c0,6.3,4.56,11.8,11.17,11.8s11.11-5.37,11.11-11.67Z"/>
      </g>
      <g>
        <path class="cls-26" d="M223.35,66.39h-12.25c-.24,0-.43-.19-.43-.43v-9.75c0-.24,.19-.43,.43-.43h37.46c.24,0,.43,.19,.43,.43v9.75c0,.24-.19,.43-.43,.43h-12.25c-.24,0-.43,.19-.43,.43v32.22c0,.24-.19,.43-.43,.43h-11.25c-.24,0-.43-.19-.43-.43v-32.22c0-.24-.19-.43-.43-.43Z"/>
        <path class="cls-13" d="M254.74,55.78h34.28c.24,0,.43,.19,.43,.43v9.44c0,.24-.19,.43-.43,.43h-22.3c-.24,0-.43,.19-.43,.43v5.76c0,.24,.19,.43,.43,.43h20.11c.24,0,.43,.19,.43,.43v8.69c0,.24-.19,.43-.43,.43h-20.11c-.24,0-.43,.19-.43,.43v6.07c0,.24,.19,.43,.43,.43h22.61c.24,0,.43,.19,.43,.43v9.44c0,.24-.19,.43-.43,.43h-34.59c-.24,0-.43-.19-.43-.43V56.21c0-.24,.19-.43,.43-.43Z"/>
        <path class="cls-9" d="M294.14,77.75v-.12c0-12.73,9.8-22.72,23.03-22.72,8.73,0,14.42,3.58,18.28,8.77,.14,.19,.1,.46-.08,.61l-8.45,6.54c-.18,.14-.44,.11-.59-.07-2.44-2.94-5.25-4.8-9.29-4.8-6.12,0-10.42,5.18-10.42,11.55v.13c0,6.55,4.31,11.67,10.42,11.67,4.41,0,7.07-1.99,9.61-5,.14-.17,.39-.21,.57-.08l8.43,6.01c.2,.14,.24,.42,.1,.61-4.09,5.5-9.62,9.5-19.09,9.5-12.48,0-22.53-9.55-22.53-22.59Z"/>
        <path class="cls-24" d="M341.64,55.78h11.25c.24,0,.43,.19,.43,.43v15.49c0,.24,.19,.43,.43,.43h14.68c.24,0,.43-.19,.43-.43v-15.49c0-.24,.19-.43,.43-.43h11.25c.24,0,.43,.19,.43,.43v42.83c0,.24-.19,.43-.43,.43h-11.25c-.24,0-.43-.19-.43-.43v-15.74c0-.24-.19-.43-.43-.43h-14.68c-.24,0-.43,.19-.43,.43v15.74c0,.24-.19,.43-.43,.43h-11.25c-.24,0-.43-.19-.43-.43V56.21c0-.24,.19-.43,.43-.43Z"/>
      </g>
    </g>
  </g>
</svg>